<?xml version="1.0" standalone="no"?>
<!DOCTYPE svg PUBLIC "-//W3C//DTD SVG 20010904//EN"
 "http://www.w3.org/TR/2001/REC-SVG-20010904/DTD/svg10.dtd">
<svg version="1.0" xmlns="http://www.w3.org/2000/svg"
 width="376.000000pt" height="376.000000pt" viewBox="0 0 376.000000 376.000000"
 preserveAspectRatio="xMidYMid meet">
<metadata>
Created by potrace 1.14, written by Peter Selinger 2001-2017
</metadata>
<g transform="translate(0.000000,376.000000) scale(0.100000,-0.100000)"
fill="#000000" stroke="none">
<path d="M222 3380 c-4 -3 -7 -47 -8 -97 -1 -108 -7 -102 114 -99 l82 2 0
-106 c1 -58 2 -163 3 -235 l2 -130 238 -2 237 -1 -2 241 -3 241 -235 1 -235 0
0 93 c0 55 -4 92 -10 93 -42 4 -177 4 -183 -1z"/>
<path d="M1059 3196 c-1 -1 -2 -106 -3 -233 -1 -152 2 -234 9 -235 5 0 21 -2
35 -2 14 -1 30 -5 37 -9 6 -4 14 -4 16 0 7 10 1633 10 1672 0 113 -29 207
-104 251 -200 26 -56 29 -72 29 -172 0 -95 -3 -116 -23 -157 -54 -108 -159
-177 -297 -194 -53 -7 -1235 -10 -1236 -4 -1 3 -2 105 -3 227 -1 122 -4 225
-8 229 -8 8 -457 9 -464 1 -4 -4 -8 -410 -5 -463 1 -7 73 -10 231 -10 146 1
230 -3 231 -9 1 -5 2 -106 3 -223 1 -174 4 -214 15 -222 9 -5 22 -5 31 0 9 5
22 5 30 0 8 -5 22 -4 32 1 10 5 18 6 18 2 0 -4 11 -8 25 -8 14 0 25 4 25 8 0
4 8 3 18 -2 11 -6 24 -6 35 0 9 6 17 6 17 2 0 -4 11 -8 25 -8 14 0 25 4 25 8
0 5 5 5 11 1 16 -9 89 -11 114 -3 11 3 29 3 40 -1 11 -4 29 -4 40 0 11 4 29 4
40 0 11 -4 29 -4 40 0 11 4 29 4 40 0 11 -4 30 -3 43 1 13 5 21 5 18 0 -4 -5
9 -6 29 -1 19 4 35 4 35 0 0 -5 13 -5 30 0 17 5 30 6 30 2 0 -4 11 -7 25 -7
14 0 25 4 25 8 0 4 8 3 18 -2 11 -6 24 -6 35 0 9 6 17 6 17 2 0 -4 11 -8 25
-8 14 0 25 4 25 8 0 4 8 3 18 -2 11 -6 24 -6 35 0 9 6 17 6 17 2 0 -4 11 -8
25 -8 14 0 25 4 25 8 0 4 8 3 18 -2 11 -6 24 -6 35 0 9 6 17 6 17 2 0 -4 11
-8 25 -8 14 0 25 4 25 8 0 4 8 4 17 -2 10 -5 26 -5 39 -1 12 5 25 6 28 2 4 -3
12 -7 19 -8 93 -16 149 -45 219 -114 104 -104 114 -151 113 -522 0 -189 3
-288 10 -289 5 0 108 -1 228 -2 186 -2 220 0 226 13 8 18 6 591 -2 640 -26
148 -83 263 -177 359 -75 76 -88 86 -154 125 l-49 28 30 24 c135 105 230 262
267 440 14 64 16 300 3 349 -33 132 -56 187 -115 280 -82 129 -209 234 -354
292 -142 58 -106 56 -1110 58 -511 0 -929 1 -929 1z"/>
<path d="M165 2186 c-1 -83 2 -153 6 -156 6 -4 258 -5 295 -1 8 1 11 49 10
154 l-1 152 -155 1 -155 2 0 -152z"/>
<path d="M650 1961 l-35 -6 0 -202 c0 -175 2 -203 15 -204 45 -3 358 -4 375
-1 20 3 20 10 20 205 0 195 -1 202 -20 202 -11 1 -25 4 -31 7 -5 4 -27 3 -47
-2 -21 -4 -37 -4 -37 1 0 5 -11 4 -24 -1 -13 -5 -26 -6 -30 -3 -7 8 -115 7
-123 -1 -3 -3 -11 -2 -17 2 -6 4 -27 6 -46 3z"/>
<path d="M968 1412 c-14 -3 -16 -25 -16 -159 -1 -145 0 -155 17 -150 10 2 26
0 35 -5 9 -5 16 -5 16 0 0 9 53 8 69 -3 6 -3 11 -3 11 2 0 4 38 7 84 5 l84 -3
0 158 1 158 -143 0 c-78 0 -149 -1 -158 -3z"/>
</g>
</svg>
